<svg version="1.2" xmlns="http://www.w3.org/2000/svg" viewBox="0 0 1600 1600" width="1600" height="1600">
	<style>
		.s0 { fill: #88c0d0 } 
	</style>
	<path class="s0" d="m830.85 217.66c-9.15-50.11-19.34-105.84-31.28-167.87-11.97 62.19-22.13 117.79-31.25 167.76-41.88 229.3-62.84 343.98-134.92 416.06-71.96 71.96-186.37 92.97-414.91 134.71l-1.03 0.2c-50.12 9.15-105.85 19.34-167.88 31.28 62.19 11.98 117.79 22.14 167.76 31.26 229.3 41.87 343.98 62.83 416.06 134.91 71.97 71.96 92.97 186.37 134.71 414.91l0.21 1.03c9.15 50.12 19.33 105.85 31.27 167.88 11.98-62.19 22.14-117.79 31.26-167.76 41.88-229.3 62.83-343.98 134.91-416.06 71.96-71.96 186.37-92.97 414.91-134.71l1.04-0.2c50.11-9.15 105.85-19.34 167.87-31.28-62.19-11.98-117.78-22.14-167.76-31.26-229.3-41.87-343.98-62.83-416.06-134.91-71.96-71.96-92.96-186.37-134.71-414.91z"/>
</svg>